<svg xmlns="http://www.w3.org/2000/svg" width="622.8" height="74.8" viewBox="0 0 622.8 74.8">
  <g id="smile-dental-clinic" transform="translate(-157.64 -166.16)">
    <path id="パス_10" data-name="パス 10" d="M53.04-52.56c2,0,2.88.56,2.88,1.76a5.954,5.954,0,0,1-.4,1.76c-3.12,8.96-9.76,18.32-18.08,26A89.778,89.778,0,0,1,9.04-5.76a3.677,3.677,0,0,0-2.4,3.44A3.737,3.737,0,0,0,6.88-.96a2.93,2.93,0,0,0,2.96,2,5.5,5.5,0,0,0,1.92-.4C24.16-4,36.72-11.76,45.6-21.52A131.512,131.512,0,0,1,66.72-1.36,3.838,3.838,0,0,0,69.6-.08a3.753,3.753,0,0,0,2.8-1.2,3.853,3.853,0,0,0,1.04-2.56,4.463,4.463,0,0,0-1.12-2.8C65.6-14.4,59.04-19.6,50.08-26.56c5.6-6.88,10.08-13.68,12.72-20.8A15.181,15.181,0,0,0,63.68-52a7.809,7.809,0,0,0-1.04-4c-1.44-2.08-3.68-3.2-7.12-3.2l-40.72.4a2.883,2.883,0,0,0-2.96,3.2c0,2.16,1.04,3.52,2.96,3.52Zm88.08,2.16c2,0,2.96.64,2.96,1.92a5.1,5.1,0,0,1-.72,2.24c-4.88,9.12-14.56,18.32-24.64,24.56a166.8,166.8,0,0,0-15.2-14.96,4.194,4.194,0,0,0-2.56-1.04,3.153,3.153,0,0,0-2.16.88,3.026,3.026,0,0,0-1.36,2.4,3.163,3.163,0,0,0,1.2,2.32A191.129,191.129,0,0,1,126.24-.56a3.865,3.865,0,0,0,3.12,1.84,3.7,3.7,0,0,0,2-.64,4.235,4.235,0,0,0,1.76-3.28,3.519,3.519,0,0,0-.64-2.08,130.05,130.05,0,0,0-9.36-11.68c11.04-7.2,21.76-17.2,27.6-27.92a11.827,11.827,0,0,0,1.6-5.68,7.061,7.061,0,0,0-1.36-4.24c-1.44-2-4-2.96-7.04-2.96l-54.24.08c-1.6,0-2.72,1.52-2.72,3.44,0,1.84,1.04,3.36,2.72,3.36Zm62.08,9.84a112.4,112.4,0,0,0,20.08-17.52,3.579,3.579,0,0,0,.88-2.16,3.316,3.316,0,0,0-1.44-2.64,3.714,3.714,0,0,0-2.32-.8,3.8,3.8,0,0,0-2.72,1.28,98.132,98.132,0,0,1-21.76,18.48,132.755,132.755,0,0,1-30.8,14.88,3.423,3.423,0,0,0-2.4,3.2,6.175,6.175,0,0,0,.16,1.2,3.088,3.088,0,0,0,2.96,2.24,4.838,4.838,0,0,0,1.76-.32,145.169,145.169,0,0,0,28.48-13.2V.16c0,2.16,1.52,3.12,3.6,3.12,2,0,3.52-1.04,3.52-3.04ZM273.28-6.72c0,5.12,2.4,7.68,6.88,7.68A17.934,17.934,0,0,0,284,.48c9.44-2.32,19.2-12.16,24.08-24.24a3.632,3.632,0,0,0,.32-1.44,3.09,3.09,0,0,0-1.84-2.88,3.647,3.647,0,0,0-1.76-.48,2.841,2.841,0,0,0-2.64,1.84c-4.08,8.72-8.64,15.84-17.6,19.76a6.346,6.346,0,0,1-2.32.56c-1.36,0-2-.8-2-2.24l.32-51.2c0-2-1.52-3.2-3.52-3.2-2.16,0-3.44,1.2-3.44,3.2ZM252.64-42.48c0,12.24-1.36,20.24-3.76,26.24a28.806,28.806,0,0,1-9.92,12.56,3.25,3.25,0,0,0-1.6,2.8,3.442,3.442,0,0,0,.88,2.4,3.536,3.536,0,0,0,2.72,1.28,4.584,4.584,0,0,0,2.96-1.12c4.56-3.36,8.48-8.56,11.28-14.8,2.8-6.56,4.4-15.92,4.4-28.8V-59.2a3.234,3.234,0,0,0-3.52-3.36,3.152,3.152,0,0,0-3.44,3.28ZM355.6-49.36v-6.88h23.76c1.36,0,2.08-1.04,2.08-2.56,0-1.36-.72-2.48-2.08-2.48H355.6v-4.16c0-1.44-.96-2.4-2.96-2.4-1.84,0-2.96.96-2.96,2.48v16H335.84V-60.8c0-1.6-1.12-2.64-3.04-2.64a2.657,2.657,0,0,0-2.96,2.64v11.44h-12.4c-1.36,0-2.08,1.2-2.08,2.64,0,1.6.72,2.64,2.08,2.64h69.04c1.36,0,2.08-1.04,2.08-2.64,0-1.52-.72-2.64-2.08-2.64ZM376.96,4.48c4.96,0,7.36-2.08,7.36-7.04v-36.4c0-1.52-1.28-2.32-3.12-2.32s-3.04.8-3.04,2.32V-4.08c0,2.32-.88,3.12-3.6,3.12H329.2c-2.72,0-3.6-.8-3.6-3.12V-39.04c0-1.52-1.2-2.24-3.04-2.24s-3.04.72-3.04,2.24V-2.56c0,4.96,2.32,7.04,7.28,7.04ZM408.4-40.96a65.855,65.855,0,0,1-13.12,24.4,3.4,3.4,0,0,0-.88,2.16,2.811,2.811,0,0,0,1.2,2.32,3.166,3.166,0,0,0,1.84.72,3.026,3.026,0,0,0,2.4-1.36c4.4-5.36,8.8-14.72,10.56-21.28a128.948,128.948,0,0,0-1.2,13.44V4.64c0,1.52,1.04,2.32,2.8,2.32,1.84,0,3.04-.8,3.04-2.32v-27.6a98.835,98.835,0,0,0-.96-12.32,43.367,43.367,0,0,0,7.68,11.76,3.317,3.317,0,0,0,2.4,1.2,2.411,2.411,0,0,0,1.92-.88,2.867,2.867,0,0,0,.72-1.92,3.148,3.148,0,0,0-1.04-2.32c-3.84-3.44-8.16-8.16-10.56-13.52h9.2c1.44,0,2.24-1.2,2.24-2.88,0-1.6-.8-2.64-2.24-2.64h-9.36V-58.4a59.083,59.083,0,0,0,9.84-3.28,2.346,2.346,0,0,0,1.68-2.24,3.912,3.912,0,0,0-.4-1.52,2.637,2.637,0,0,0-2.48-1.6,3.048,3.048,0,0,0-1.36.32c-5.76,2.72-15.12,5.04-23.2,5.68a2.333,2.333,0,0,0-2.32,2.56v.4a2.539,2.539,0,0,0,2.72,2.48h.4c3.04-.32,6.16-.8,9.28-1.44v10.56H398.4c-1.44,0-2.24,1.04-2.24,2.72,0,1.6.8,2.8,2.24,2.8Zm51.76,19.2v-43.2c0-1.52-1.12-2.32-3.04-2.32-1.76,0-3.04.8-3.04,2.32v44.64L426-13.76a2.238,2.238,0,0,0-1.68,2.48,2.722,2.722,0,0,0,.08.8,2.43,2.43,0,0,0,2.4,2.32,1.761,1.761,0,0,0,.64-.08l26.64-6.16V4.64c0,1.52,1.28,2.32,3.04,2.32,1.92,0,3.04-.8,3.04-2.32V-15.84l7.76-1.76a2.313,2.313,0,0,0,1.68-2.48,3.894,3.894,0,0,0-.08-.96c-.32-1.44-1.12-2.32-2.24-2.32a1.361,1.361,0,0,0-.56.08ZM436.8-60.8a3.965,3.965,0,0,0-2.08-.64,2.857,2.857,0,0,0-2.16.96,2.729,2.729,0,0,0-.8,1.92,3.145,3.145,0,0,0,1.36,2.4,69.385,69.385,0,0,1,11.44,10.08,2.739,2.739,0,0,0,2.16.96,2.857,2.857,0,0,0,2.16-.96,3.133,3.133,0,0,0,.72-2.08,3.2,3.2,0,0,0-.72-2.16A59.852,59.852,0,0,0,436.8-60.8Zm-2.96,20.08a2.88,2.88,0,0,0-1.76-.56,2.836,2.836,0,0,0-2.24,1.04,3.37,3.37,0,0,0-.8,2.08,2.386,2.386,0,0,0,.96,1.92,72.235,72.235,0,0,1,11.84,10.48,2.857,2.857,0,0,0,2.16.96,3.3,3.3,0,0,0,2.16-.8,3.091,3.091,0,0,0,.88-2.16,3.787,3.787,0,0,0-.8-2.16A74.071,74.071,0,0,0,433.84-40.72ZM544.32-27.6c1.44,0,2.16-1.2,2.16-2.72,0-1.68-.72-2.72-2.16-2.72h-26a70.105,70.105,0,0,0,.8-10.8H539.2c1.36,0,2.08-1.2,2.08-2.8s-.72-2.64-2.08-2.64H504.96c.96-1.76,1.84-3.52,2.56-5.2a2.13,2.13,0,0,0,.24-.96c0-1.12-.8-2-2.24-2.4A6.276,6.276,0,0,0,504.4-58a2.565,2.565,0,0,0-2.48,1.68,39.658,39.658,0,0,1-10.4,15.6,3.082,3.082,0,0,0-1.04,2.16,3.016,3.016,0,0,0,.88,2,2.848,2.848,0,0,0,2.08.88,3.4,3.4,0,0,0,2.16-.88,42.508,42.508,0,0,0,6.08-7.28h11.6a81.633,81.633,0,0,1-.72,10.8H490.88c-1.44,0-2.16,1.12-2.16,2.72s.72,2.72,2.16,2.72h20.4c-2.48,7.68-8,12.4-19.6,16a2.376,2.376,0,0,0-2,2.4,3.978,3.978,0,0,0,.24,1.28,2.877,2.877,0,0,0,2.8,2.08,6.175,6.175,0,0,0,1.2-.16C506-9.92,512.64-16,516.08-24.64c5.04,10.16,13.36,16.4,25.44,18.72a1.361,1.361,0,0,0,.56.08,3.042,3.042,0,0,0,2.96-2.4,2.721,2.721,0,0,0,.08-.8,2.74,2.74,0,0,0-2.08-2.88c-10.88-1.92-18.24-7.2-22.64-15.68Zm1.84,31.76c1.44,0,2.24-1.12,2.24-2.96,0-1.76-.8-2.88-2.24-2.88h-59.2c-1.68,0-2.56-.56-2.56-2.4V-56.72c0-1.76.88-2.4,2.56-2.4H544.8c1.52,0,2.32-1.12,2.32-2.88s-.8-2.8-2.32-2.8H485.44c-4.8,0-7.36,2.32-7.36,7.2V-3.04c0,4.88,2.56,7.2,7.36,7.2Zm60.32-63.44v-6.4c0-1.36-1.28-2.08-3.2-2.08-1.84,0-3.12.72-3.12,2.08v6.4h-12.8c-4.16,0-6,2.32-6,6.56v7.6c0,1.76,1.12,2.48,2.88,2.48s2.96-.72,2.96-2.08v-6.96c0-1.68.56-2.24,2.08-2.24h30.08c1.52,0,2.08.56,2.08,2.24v7.12c0,1.28,1.2,2,3.04,2,1.76,0,3.04-.72,3.04-2.48v-7.68c0-4.24-1.92-6.56-6.08-6.56ZM592.8-26.64c-.4,11.12-3.2,16.56-6.56,19.92A30.9,30.9,0,0,1,574.56.32a2.764,2.764,0,0,0-2.08,2.64,3.048,3.048,0,0,0,.32,1.36,2.914,2.914,0,0,0,2.8,2.08,3.71,3.71,0,0,0,1.52-.32A37.3,37.3,0,0,0,590.8-2.56c4.4-4.64,7.44-11.36,8-24.08h7.68V-1.28c0,4.24,1.44,5.68,5.6,6.24a33.293,33.293,0,0,0,4.32.24,42,42,0,0,0,6.24-.4,6.109,6.109,0,0,0,4.8-3.44c1.12-2.32,1.84-6.48,2-10.88v-.16a2.6,2.6,0,0,0-2.64-2.8h-.48a2.375,2.375,0,0,0-2.64,2.4c-.16,3.44-.32,6.4-1.12,8.08-.56,1.12-1.6,1.6-4.88,1.6-4.48,0-5.28-.16-5.28-2.4V-26.64h13.52c1.44,0,2.16-1.2,2.16-2.72,0-1.6-.72-2.72-2.16-2.72H584.24c-1.44,0-2.24,1.2-2.24,2.72,0,1.6.8,2.72,2.24,2.72ZM556.96,4.32c0,1.68,1.12,2.48,2.96,2.48s2.96-.8,2.96-2.48v-62.4c0-1.6.72-2,2.24-2h8c1.2,0,1.76.32,1.76,1.12a5.907,5.907,0,0,1-.16.96,63.228,63.228,0,0,1-7.12,14.64,5.147,5.147,0,0,0-.8,2.8,4.317,4.317,0,0,0,.96,2.88c4.96,5.6,7.12,10.96,7.12,15.2,0,4.16-.64,5.36-2.88,5.36a18.869,18.869,0,0,1-3.84-.4,1.562,1.562,0,0,0-.56-.08,2.6,2.6,0,0,0-2.48,2.48,1.361,1.361,0,0,0-.08.56,2.727,2.727,0,0,0,2.16,2.88,20.876,20.876,0,0,0,5.2.56c5.6,0,8.48-3.04,8.48-10.56,0-5.92-2.56-12.08-7.52-17.68a1.874,1.874,0,0,1-.56-1.36,2.381,2.381,0,0,1,.4-1.2,67.15,67.15,0,0,0,7.68-15.76,8.487,8.487,0,0,0,.48-2.72c0-3.12-2.08-5.2-5.6-5.2H563.52c-4.32,0-6.56,1.84-6.56,6.32Zm60.56-44.48a2.434,2.434,0,0,0,2.32-2.72,2.434,2.434,0,0,0-2.32-2.72H591.2c-1.52,0-2.32,1.2-2.32,2.72s.8,2.72,2.32,2.72Z" transform="translate(151 234)" fill="#a7a7a7"/>
    <g id="smile-dental" transform="translate(156.277 -90.156)">
      <g id="smile-dental-2" data-name="smile-dental" transform="translate(327 288)">
        <g id="楕円形_3" data-name="楕円形 3" fill="#a7a7a7" stroke="#a7a7a7" stroke-width="1">
          <circle cx="6" cy="6" r="6" stroke="none"/>
          <circle cx="6" cy="6" r="5.5" fill="none"/>
        </g>
      </g>
      <g id="コンポーネント_4_1" data-name="コンポーネント 4 – 1" transform="translate(352 288)">
        <g id="楕円形_3-2" data-name="楕円形 3" fill="#a7a7a7" stroke="#a7a7a7" stroke-width="1">
          <circle cx="6" cy="6" r="6" stroke="none"/>
          <circle cx="6" cy="6" r="5.5" fill="none"/>
        </g>
      </g>
      <path id="パス_9" data-name="パス 9" d="M340.852,308.119c.285-.916,3.393-4.352,7.416-7.356a19.1,19.1,0,0,1,11.7-3.983c9.822,0,16.2,2.06,20.172,11.338" transform="matrix(-1, 0.017, -0.017, -1, 712.458, 607.413)" fill="#fff" stroke="#a7a7a7" stroke-width="3"/>
    </g>
  </g>
</svg>
